ply
format ascii 1.0
element vertex 20
property float x
property float y
property float z
property float f_dc_0
property float f_dc_1
property float f_dc_2
property float opacity
property float scale_0
property float scale_1
property float scale_2
property float rot_0
property float rot_1
property float rot_2
property float rot_3
end_header
0.0 -0.0 -0.0 -1.7724539 -1.7724539 -1.7724539 20.0 0.1 0.1 0.1 1.0 0.0 0.0 0.0
10.0 -0.0 -0.0 1.7724539 -1.7724539 -1.7724539 20.0 0.1 0.1 0.1 1.0 0.0 0.0 0.0
0.0 -10.0 -0.0 -1.7724539 1.7724539 -1.7724539 20.0 0.1 0.1 0.1 1.0 0.0 0.0 0.0
10.0 -10.0 -0.0 1.7724539 1.7724539 -1.7724539 20.0 0.1 0.1 0.1 1.0 0.0 0.0 0.0
0.0 -0.0 -10.0 -1.7724539 -1.7724539 1.7724539 20.0 0.1 0.1 0.1 1.0 0.0 0.0 0.0
10.0 -0.0 -10.0 1.7724539 -1.7724539 1.7724539 20.0 0.1 0.1 0.1 1.0 0.0 0.0 0.0
0.0 -10.0 -10.0 -1.7724539 1.7724539 1.7724539 20.0 0.1 0.1 0.1 1.0 0.0 0.0 0.0
10.0 -10.0 -10.0 1.7724539 1.7724539 1.7724539 20.0 0.1 0.1 0.1 1.0 0.0 0.0 0.0
5.0 -0.0 -0.0 0.0 -1.7724539 -1.7724539 20.0 1.0 0.1 0.1 1.0 0.0 0.0 0.0
5.0 -10.0 -0.0 0.0 1.7724539 -1.7724539 20.0 1.0 0.1 0.1 1.0 0.0 0.0 0.0
5.0 -0.0 -10.0 0.0 -1.7724539 1.7724539 20.0 1.0 0.1 0.1 1.0 0.0 0.0 0.0
5.0 -10.0 -10.0 0.0 1.7724539 1.7724539 20.0 1.0 0.1 0.1 1.0 0.0 0.0 0.0
0.0 -5.0 -0.0 -1.7724539 0.0 -1.7724539 20.0 0.1 1.0 0.1 1.0 0.0 0.0 0.0
0.0 -5.0 -10.0 -1.7724539 0.0 1.7724539 20.0 0.1 1.0 0.1 1.0 0.0 0.0 0.0
10.0 -5.0 -0.0 1.7724539 0.0 -1.7724539 20.0 0.1 1.0 0.1 1.0 0.0 0.0 0.0
10.0 -5.0 -10.0 1.7724539 0.0 1.7724539 20.0 0.1 1.0 0.1 1.0 0.0 0.0 0.0
0.0 -0.0 -5.0 -1.7724539 -1.7724539 0.0 20.0 0.1 0.1 1.0 1.0 0.0 0.0 0.0
0.0 -10.0 -5.0 -1.7724539 1.7724539 0.0 20.0 0.1 0.1 1.0 1.0 0.0 0.0 0.0
10.0 -0.0 -5.0 1.7724539 -1.7724539 0.0 20.0 0.1 0.1 1.0 1.0 0.0 0.0 0.0
10.0 -10.0 -5.0 1.7724539 1.7724539 0.0 20.0 0.1 0.1 1.0 1.0 0.0 0.0 0.0
